Patient4_TMGait_0pt4_01_left_30_EMG.mot
version=1
nRows=20
nColumns=33
inDegrees=no
endheader
time	1LAddLong	2LGlutMax	3LGlutMed	4LIliopsoas	5LSemiMemb	6LBicFemLong	7LRecFem	8LVastMed	9LVastLat	10LGasMed	11LTibAnt	12lTibPost	13LPeroneusLong	14LSol	15LExtDigLong	16LFlexDigLong	17RAddLong	18RGlutMax	19RGlutMed	20RIliopsoas	21RSemiMemb	22RBicFemLong	23RRecFem	24RVastMed	25RVastLat	26RGasMed	27RTibAnt	28RTibPost	29RPeroneusLong	30RSol	31RExtDigLong	32RFlexDigLong
36.72	0.001678	0.23163	-0.054169	-0.015411	0.019226	0.004272	0.012054	0.015869	-0.16647	-0.00061	-0.038605	0.001678	-0.00473	-0.066833	0.04715	-0.00412	0.027161	-0.79651	0.1474	0.005188	0.003204	0.022278	0.327	-0.074768	-0.1239	-0.013428	-0.044708	-0.018311	0.0177	-0.94971	-0.013275	-0.008698
36.721	0.001678	0.23789	-0.029907	0.003204	0.011292	0.003967	0.02182	0.014954	-0.1709	0.007629	0.047607	-0.00061	-0.019836	-0.055542	0.060425	0.00824	0.019531	-0.71411	0.42038	0.012207	0.020447	0.054016	0.28702	-0.11765	-0.18021	-0.008698	-0.064545	-0.10757	-0.021973	-0.58273	-0.019379	-0.008392
36.722	0.002747	0.22003	-0.021057	-0.006866	-0.002747	0.008392	0.016479	0.016632	-0.16785	0.009613	0.085602	0.001068	-0.02121	-0.028381	0.059509	0.006104	0.012817	-0.7489	-0.26474	-0.035095	0.038452	0.051422	0.07782	-0.076904	-0.16144	-0.006561	0.000305	0.020142	-0.088348	0.30228	-0.010681	-0.002441
36.723	0.002289	0.2214	-0.031738	-0.005951	-0.005188	0.000458	0.003967	0.014038	-0.16785	-0.016632	0.062561	0	-0.051575	-0.010986	0.036011	0.002441	0.025635	-0.6308	-0.80276	-0.066376	0.15137	0.027466	-0.000305	0.051575	0.021057	-0.001068	0.011749	0.015106	-0.20615	0.68039	-0.010681	0.009308
36.724	0.002747	0.20462	-0.065918	-0.005341	0	0.014343	0.00946	0.013123	-0.17273	-0.019073	-0.010376	-0.002899	-0.041962	-0.02182	0.018463	0.004425	0.027924	-0.6337	-0.34042	-0.030518	0.14008	-0.054016	-0.28839	0.20554	0.16495	-0.017395	0.013733	-0.000458	-0.28778	0.61829	-0.012665	0.002747
36.725	0.006714	0.19653	-0.071411	-0.005188	-0.007324	0.015411	0.010376	0.009918	-0.17746	-0.049591	-0.07309	-0.00473	0.003357	-0.006714	0.029449	-0.007019	0.016785	-0.63782	-0.061493	0.027771	-0.12375	-0.030823	-0.57739	0.20966	0.28061	-0.007172	0.007629	0.005035	-0.17349	0.42877	-0.013428	-0.000305
36.726	0.007782	0.13687	-0.040741	-0.012665	0.002441	0.007629	0.002899	0.013123	-0.18219	-0.070038	-0.060425	0.002747	0.03006	0.019989	-0.020142	0.001831	0.012817	-0.6398	0.6044	0.021667	-0.10773	-0.088501	-0.44098	0.078735	0.29434	-0.012817	0.036926	0.011597	-0.063019	0.22232	-0.00946	0.010529
36.727	0.006714	0.12299	-0.019531	-0.008392	-0.002289	0.012054	-0.006104	0.007629	-0.18097	-0.094299	-0.098572	0.003967	0.061646	-0.025482	0.042572	-0.003052	0.008087	-0.56122	0.62302	-0.023346	-0.26428	-0.024414	-0.093536	-0.14389	0.14496	-0.001526	0.019379	-0.037537	0.085449	0.065308	-0.010376	0.013428
36.728	0.010529	0.11902	-0.008392	-0.010834	-0.011139	0.016937	-0.004425	0.010376	-0.18478	-0.065155	-0.17883	0.007629	0.074615	-0.054016	0.066986	0.001526	-0.014343	-0.44662	0.47913	-0.025024	-0.25009	0.057526	-0.09201	-0.10147	0.047913	0.001373	0.016632	0.000763	0.072327	-0.02182	-0.012817	-0.005493
36.729	0.009918	0.11276	-0.03006	0	-0.005798	0.036469	-0.02243	0.010376	-0.18829	-0.046692	-0.10971	-0.002136	0.085754	-0.004272	0.06485	0.006104	-0.015564	-0.32425	0.43991	-0.005341	0.11704	0.024109	-0.10071	-0.033722	0.038757	0.02121	0.027924	0.016174	0.00351	-0.11078	-0.012512	-0.003052
36.73	0.008698	0.1178	-0.032196	0.000916	-0.00824	0.03891	-0.040436	0.007629	-0.18982	0.004425	-0.079041	0.000153	0.06073	0.041962	0.083923	-0.007935	-0.006256	-0.27649	0.39993	0.013428	0.042419	0.027924	0.00412	-0.063171	-0.085754	0.045166	0.041656	-0.009613	0.10819	-0.088348	-0.01358	-0.001831
36.731	0.008698	0.074158	-0.047455	0.008392	-0.014801	0.050201	-0.035858	0.006714	-0.19043	0.018616	0.046692	-0.001831	0.096283	0.059814	0.082703	-0.008087	-0.039368	-0.17197	0.16007	0.097809	0.009613	0.021667	0.019379	-0.023193	-0.10803	0.019836	0.028381	-0.06897	0.1683	-0.14816	-0.007172	-0.002136
36.732	0.00824	0.057068	-0.047913	-0.002899	-0.016937	0.034485	-0.01709	0.006256	-0.18951	0.026398	0.21332	0.011292	0.059357	0.036011	0.072479	-0.003662	-0.014038	-0.093689	0.29312	0.04364	0.099792	0.014191	0.009766	-0.032501	-0.028534	0.00473	0.028381	-0.14511	-0.024109	-0.21362	-0.011292	-0.001678
36.733	0.001831	0.046387	-0.10376	-0.005035	-0.019379	0.018616	-0.045013	0.014801	-0.20035	0.017853	0.15121	-0.00473	-0.002899	0.08255	0.037994	-0.009003	0.00351	-0.02243	0.41245	0.026398	0.11765	-0.014801	0.023041	0.018005	0.019836	-0.010681	0.041962	-0.077362	-0.003967	-0.22446	-0.007935	0.000153
36.734	0.003815	0.015869	-0.11459	0.00885	-0.039215	-0.010376	-0.04364	0.002899	-0.20813	0.042572	0.033569	0.004578	-0.025787	-0.0354	-0.1889	-0.016022	0.00946	0.018158	0.3862	0.005035	0.094147	-0.026703	-0.061646	0.012054	-0.011902	-0.007172	0.047302	-0.17593	0.15167	-0.1503	-0.005341	-0.006409
36.735	0.005188	0.007172	-0.1001	0.007324	-0.020599	-0.010223	-0.048065	0.019226	-0.21652	0.047455	0.047607	0.005341	-0.049896	-0.16815	-0.093079	-0.015411	0.001984	0.020142	0.3096	-0.016785	0.020905	0.003052	-0.1207	0.035706	0.034943	0.010223	0.001221	0.24094	0.12161	-0.20493	-0.003052	-0.007629
36.736	0.010529	0.034637	-0.10162	0.00473	-0.020294	0.005646	-0.07843	0.01236	-0.22339	0.039063	0.22308	-0.004578	-0.072632	-0.10666	0.54779	-0.02121	0.015259	0.1326	0.072327	0.013733	-0.065613	0.049286	-0.098572	-0.011139	0.064087	0.019684	-0.003052	0.18188	-0.41657	-0.12665	-0.00824	-0.002594
36.737	0.023804	-0.017548	-0.035858	-0.000458	-0.041809	-0.007782	-0.080566	0.010529	-0.24399	-0.002441	0.20783	0.004272	-0.005798	-0.029297	-0.112	-0.007324	0.017853	0.13443	0.034332	-0.048065	-0.062103	0.055847	-0.015259	-0.010681	0.018463	0.00061	0.039215	0.070648	-0.66422	-0.29129	-0.004883	-0.011139
36.738	0.008545	0.005798	0.027313	-0.001526	-0.033875	-0.012054	-0.086517	0.008087	-0.26947	-0.055695	-0.012512	0.000458	0.074158	-0.0383	-0.1062	-0.010071	0.002136	0.2063	-0.19867	-0.085449	-0.006561	0.015564	-0.02533	-0.055084	-0.010376	-0.007935	0.11566	0.028534	-1.1354	-0.29739	-0.007019	-0.007935
36.739	0.009766	-0.059967	0.065002	0.005188	-0.031281	0.005188	-0.087738	-0.000305	-0.31525	-0.052338	-0.13763	0.00473	0.096588	-0.000305	0.20691	-0.01236	-0.008545	0.03418	-0.4155	-0.02655	0.11139	0.014954	0.017548	-0.05249	-0.023804	-0.020142	0.15182	0.001526	-1.1867	0.11734	-0.006561	-0.008087
